<svg xmlns="http://www.w3.org/2000/svg" xmlns:xlink="http://www.w3.org/1999/xlink" x="0px" y="0px" viewBox="0 0 44 44" style="enable-background:new 0 0 44 44;" xml:space="preserve"><g id="lock"/><g id="video"/><g id="dress"/><g id="ring"/><g id="dish"/><g id="hotel"/><g id="couple"/><g id="lesbian"/><g id="gift"/><g id="birds"/><g id="gay"/><g id="key"/><g id="glass"/><g id="ring_x5F_box"/><g id="calendar"/><g id="rings"/><g id="suit"/><g id="photo"/><g id="balloons"/><g id="cake"/><g id="love"/><g id="letter"/><g id="bouquet">	<g>		<circle cx="31" cy="9" r="1"/>		<g>			<circle cx="12.999" cy="8.999" r="1"/>		</g>		<circle cx="13" cy="9" r="1"/>		<circle cx="22" cy="12" r="1"/>		<circle cx="31" cy="9" r="1"/>		<g>			<circle cx="26" cy="5" r="1"/>		</g>		<g>			<circle cx="18" cy="5" r="1"/>		</g>		<circle cx="15" cy="16" r="1"/>		<g>			<circle cx="29" cy="16" r="1"/>			<path d="M35.849,6.99c-0.284-0.685-0.919-1.148-1.657-1.209c-0.034-0.712-0.498-1.347-1.183-1.631     C32.331,3.871,31.566,3.986,31,4.451c-0.038-0.031-0.083-0.045-0.123-0.073c0.153-0.446,0.158-0.934-0.029-1.387     c-0.284-0.685-0.919-1.148-1.631-1.183c-0.061-0.738-0.524-1.373-1.209-1.657C27.332-0.128,26.564-0.013,26,0.452     c-0.565-0.465-1.33-0.58-2.009-0.301c-0.685,0.284-1.148,0.919-1.183,1.631c-0.295,0.024-0.565,0.128-0.811,0.27     c-0.24-0.134-0.499-0.23-0.779-0.243c-0.061-0.738-0.524-1.373-1.209-1.657C19.332-0.128,18.564-0.013,18,0.452     c-0.565-0.465-1.33-0.58-2.009-0.301c-0.685,0.284-1.148,0.919-1.183,1.631c-0.738,0.061-1.373,0.524-1.657,1.209     c-0.189,0.456-0.182,0.948-0.026,1.385C13.085,4.405,13.038,4.419,13,4.451c-0.565-0.465-1.33-0.58-2.009-0.301     c-0.685,0.284-1.148,0.919-1.183,1.631C9.07,5.842,8.435,6.306,8.151,6.99C7.868,7.675,7.989,8.452,8.467,8.98     c-0.479,0.565-0.6,1.343-0.316,2.027c0.284,0.685,0.919,1.148,1.631,1.183c0.042,0.518,0.292,0.978,0.669,1.308     c-0.12,0.147-0.224,0.31-0.299,0.492c-0.283,0.685-0.162,1.462,0.316,1.99c-0.479,0.565-0.6,1.343-0.316,2.027     c0.186,0.449,0.531,0.787,0.941,0.987c0.283,2.573,1.336,5.012,3.056,6.978l3.657,4.18l-2.529,5.058     C15.096,35.572,15,35.978,15,36.383C15,37.826,16.174,39,17.616,39H18v1c0,0.553,0.447,1,1,1s1-0.447,1-1v-1h1v4     c0,0.553,0.447,1,1,1s1-0.447,1-1v-4h1v2c0,0.553,0.447,1,1,1s1-0.447,1-1v-2h0.384C27.826,39,29,37.826,29,36.383     c0-0.403-0.096-0.809-0.276-1.17l-2.529-5.06l3.657-4.18c1.719-1.965,2.771-4.402,3.055-6.974     c0.414-0.208,0.757-0.545,0.942-0.991c0.283-0.685,0.162-1.462-0.316-1.99c0.479-0.565,0.6-1.343,0.316-2.027     c-0.076-0.182-0.179-0.345-0.299-0.492c0.377-0.331,0.626-0.79,0.669-1.308c0.712-0.034,1.347-0.498,1.631-1.183     c0.283-0.685,0.162-1.462-0.316-2.027C36.011,8.452,36.132,7.675,35.849,6.99z M22.981,3.774c0.96-0.083,1.714-0.839,1.746-1.779     c0.722,0.61,1.768,0.624,2.503,0.034c0.104,0.938,0.85,1.667,1.774,1.698c-0.624,0.737-0.624,1.808,0.021,2.497     c-0.964,0.08-1.722,0.838-1.754,1.78c-0.691-0.584-1.673-0.614-2.364-0.081c-0.058-0.091-0.124-0.174-0.196-0.254     c-0.213-0.788-0.895-1.369-1.717-1.397c0.621-0.734,0.623-1.798-0.014-2.488C22.981,3.781,22.981,3.778,22.981,3.774z      M32.026,17.225c-0.964,0.08-1.722,0.838-1.754,1.78c-0.734-0.622-1.806-0.624-2.497,0.021c-0.08-0.964-0.838-1.722-1.78-1.754     c0.624-0.737,0.624-1.808-0.021-2.497c0.964-0.08,1.722-0.838,1.754-1.78c0.722,0.611,1.768,0.624,2.503,0.034     c0.104,0.938,0.85,1.667,1.774,1.698C31.381,15.465,31.381,16.535,32.026,17.225z M23.104,9.099     c0.055,0.085,0.12,0.16,0.188,0.235c0.214,0.786,0.892,1.366,1.714,1.393c-0.586,0.693-0.614,1.675-0.081,2.364     c-0.091,0.058-0.173,0.124-0.254,0.196c-0.788,0.213-1.369,0.895-1.397,1.717c-0.734-0.622-1.806-0.624-2.497,0.021     c-0.069-0.83-0.642-1.505-1.402-1.697c-0.084-0.08-0.168-0.155-0.264-0.218c0.5-0.726,0.466-1.694-0.135-2.336     c0.83-0.069,1.505-0.642,1.697-1.402c0.084-0.088,0.161-0.178,0.226-0.279C21.567,9.554,22.432,9.56,23.104,9.099z M16.728,1.995     c0.722,0.61,1.768,0.624,2.503,0.034c0.104,0.938,0.85,1.667,1.774,1.698c-0.621,0.734-0.623,1.798,0.014,2.488     c0,0.004,0,0.007,0,0.011c-0.96,0.083-1.714,0.839-1.746,1.779c-0.735-0.622-1.806-0.624-2.497,0.021     c-0.08-0.964-0.838-1.722-1.78-1.754c0.624-0.737,0.624-1.808-0.021-2.497C15.937,3.695,16.695,2.938,16.728,1.995z      M11.995,17.272c0.624-0.737,0.624-1.808-0.021-2.497c0.964-0.08,1.722-0.838,1.754-1.78c0.722,0.611,1.768,0.624,2.503,0.034     c0.104,0.938,0.85,1.667,1.774,1.698c-0.624,0.737-0.624,1.808,0.021,2.497c-0.964,0.08-1.722,0.838-1.754,1.78     c-0.734-0.622-1.806-0.624-2.497,0.021C13.695,18.062,12.937,17.305,11.995,17.272z M9.995,10.271     c0.624-0.737,0.624-1.808-0.021-2.497c0.964-0.08,1.722-0.838,1.754-1.78c0.374,0.316,0.831,0.445,1.288,0.433     c0.018,0.197,0.058,0.393,0.136,0.582c0.284,0.685,0.919,1.148,1.631,1.183c0.051,0.617,0.393,1.148,0.901,1.476     c0.08,0.2,0.188,0.39,0.343,0.556c-0.65,0.054-1.201,0.42-1.504,0.94c-0.481-0.207-1.03-0.219-1.531-0.012     c-0.303,0.126-0.552,0.328-0.75,0.567c-0.166,0.078-0.325,0.175-0.466,0.307C11.695,11.061,10.937,10.304,9.995,10.271z      M26.935,36.107C26.978,36.192,27,36.288,27,36.383C27,36.723,26.724,37,26.384,37h-8.768C17.276,37,17,36.723,17,36.382     c0-0.096,0.022-0.191,0.065-0.276L19.618,31h4.764L26.935,36.107z M28.346,24.657L24.546,29h-5.092l-3.8-4.343     c-0.945-1.081-1.644-2.333-2.088-3.672c0.515,0.048,1.031-0.105,1.415-0.453c0.363,0.308,0.813,0.467,1.271,0.467     c0.255,0,0.512-0.049,0.757-0.15c0.685-0.284,1.148-0.919,1.183-1.631c0.738-0.061,1.373-0.524,1.657-1.209     c0.162-0.391,0.177-0.807,0.084-1.194c0.021,0.009,0.037,0.025,0.058,0.034c0.686,0.284,1.461,0.162,1.99-0.316     c0.363,0.308,0.813,0.467,1.271,0.467c0.255,0,0.512-0.049,0.757-0.15c0.02-0.008,0.036-0.023,0.055-0.032     c-0.09,0.392-0.073,0.805,0.087,1.193c0.284,0.685,0.919,1.148,1.631,1.183c0.061,0.738,0.524,1.373,1.209,1.657     c0.685,0.283,1.461,0.163,1.99-0.316c0.363,0.308,0.813,0.467,1.271,0.467c0.061,0,0.122-0.012,0.183-0.018     C29.992,22.322,29.292,23.575,28.346,24.657z M34.005,10.271c-0.942,0.032-1.7,0.79-1.78,1.754     c-0.141-0.131-0.3-0.229-0.466-0.307c-0.2-0.24-0.449-0.442-0.751-0.567c-0.501-0.207-1.05-0.195-1.531,0.012     c-0.303-0.52-0.853-0.886-1.504-0.94c0.155-0.166,0.263-0.356,0.343-0.556c0.507-0.328,0.846-0.855,0.874-1.45     c0.738-0.061,1.373-0.524,1.657-1.209c0.078-0.189,0.119-0.386,0.136-0.582c0.457,0.013,0.914-0.116,1.288-0.433     c0.032,0.942,0.79,1.7,1.754,1.78C33.381,8.464,33.381,9.534,34.005,10.271z"/>		</g>	</g></g><g id="heart"/></svg>